<?xml version="1.0" standalone="no"?>
<!DOCTYPE svg PUBLIC "-//W3C//DTD SVG 20010904//EN"
 "http://www.w3.org/TR/2001/REC-SVG-20010904/DTD/svg10.dtd">
<svg version="1.0" xmlns="http://www.w3.org/2000/svg"
 width="100" height="70" viewBox="0 0 268.000000 188.000000"
 preserveAspectRatio="xMidYMid meet">
<metadata>
Created by potrace 1.16, written by Peter Selinger 2001-2019
</metadata>
<g transform="translate(0.000000,188.000000) scale(0.100000,-0.100000)"
fill="#000000" stroke="none">
<path d="M1170 1380 l0 -190 -195 0 -195 0 0 -100 0 -100 54 0 c52 0 54 1 66
33 14 42 23 26 41 -73 l13 -75 15 153 c19 195 32 201 47 24 5 -59 10 -80 17
-73 6 6 54 11 113 11 l102 0 11 31 c6 17 14 28 19 25 5 -3 15 -45 22 -93 l14
-88 16 157 c20 208 31 217 45 35 5 -63 11 -85 18 -78 7 7 62 11 143 11 l132 0
7 30 c4 17 10 30 15 30 8 0 13 -17 26 -95 12 -75 21 -67 27 24 10 134 19 201
27 201 5 0 14 -48 21 -107 7 -59 14 -102 17 -95 2 8 28 12 78 12 l74 0 0 100
0 100 -195 0 -195 0 0 190 0 190 -200 0 -200 0 0 -190z"/>
<path d="M991 1055 c-1 -16 -8 -83 -15 -147 l-12 -118 103 0 103 0 0 -195 0
-195 200 0 200 0 2 192 3 193 78 3 c68 2 77 5 73 20 -3 9 -10 46 -16 82 -6 36
-13 72 -15 80 -4 13 -27 15 -142 12 -128 -3 -139 -4 -155 -25 -9 -12 -19 -19
-22 -16 -3 2 -9 34 -13 69 l-9 65 -13 -138 c-18 -183 -26 -187 -52 -27 l-12
75 -111 -3 c-100 -3 -113 -5 -128 -25 -9 -12 -20 -19 -23 -15 -4 3 -10 37 -14
75 -5 37 -9 55 -10 38z"/>
<path d="M1768 1030 c-4 -19 -10 -71 -13 -115 -3 -44 -8 -90 -11 -102 -4 -23
-3 -23 106 -23 l111 0 -3 93 -3 92 -62 3 c-54 3 -63 0 -77 -19 -21 -30 -27
-21 -35 48 -6 55 -7 56 -13 23z"/>
<path d="M848 982 l-68 -3 0 -94 0 -95 85 0 c47 0 85 3 84 8 0 4 -8 48 -17 97
l-17 90 -67 -3z"/>
</g>
</svg>
